<?xml version="1.0" standalone="no"?><!DOCTYPE svg PUBLIC "-//W3C//DTD SVG 1.1//EN" "http://www.w3.org/Graphics/SVG/1.1/DTD/svg11.dtd"><svg class="icon" width="200px" height="92.00px" viewBox="0 0 2226 1024" version="1.1" xmlns="http://www.w3.org/2000/svg"><path d="M534.26087 0h1691.826087v489.73913c0 295.045565-239.215304 534.26087-534.26087 534.26087H0V534.26087C0 239.215304 239.215304 0 534.26087 0z" fill="#FF5000" fill-opacity=".9" /><path d="M581.810087 712.347826l48.528696-230.088348h1.825391L743.290435 712.347826h75.152695l80.094609-376.431304h-92.115478l-48.528696 230.088348h-1.780869l-111.170783-230.088348H569.878261L489.73913 712.347826h92.070957z m444.549565 6.767304c95.721739 0 164.329739-71.457391 164.329739-169.538782 0-76.443826-53.470609-128.089043-133.298087-128.089044-95.49913 0-164.329739 71.457391-164.329739 169.538783 0 76.710957 53.737739 128.089043 133.298087 128.089043z m3.650783-69.89913c-27.648 0-45.901913-23.997217-45.901913-60.015304 0-56.097391 29.473391-97.814261 69.364869-97.814261 27.648 0 45.679304 24.041739 45.679305 60.015304 0 55.296-29.740522 97.814261-69.142261 97.814261z m232.180869 66.515478c26.846609 0 48.528696-21.637565 48.528696-48.528695a48.439652 48.439652 0 1 0-96.790261 0c0 26.89113 21.370435 48.528696 48.261565 48.528695z m261.342609 2.893913c87.930435 0 153.154783-48.795826 153.154783-117.670956 0-39.134609-24.264348-68.608-64.957218-78.536348l0.267131-1.78087c51.645217-6.811826 88.687304-42.295652 88.687304-87.440695 0-59.703652-55.296-103.824696-135.123478-103.824696-80.851478 0-139.575652 43.586783-153.911652 113.530435h86.594782c7.078957-24.576 29.473391-40.20313 59.213913-40.203131 32.100174 0 52.446609 16.161391 52.446609 40.69287 0 26.089739-24.754087 41.494261-64.155826 41.494261h-44.610783l-13.801739 65.179826h41.984c34.148174 0 54.494609 17.229913 54.494609 44.610783 0 30.007652-25.021217 50.086957-60.237913 50.086956-40.69287 0-61.306435-24.486957-58.457044-53.426087h-88.153043a70.077217 70.077217 0 0 0-1.558261 13.801739c-0.534261 67.31687 56.58713 113.485913 148.168348 113.485913z" fill="#FFFFFF" /></svg>