<?xml version="1.0" standalone="no"?><!DOCTYPE svg PUBLIC "-//W3C//DTD SVG 1.1//EN" "http://www.w3.org/Graphics/SVG/1.1/DTD/svg11.dtd"><svg class="icon" width="200px" height="92.00px" viewBox="0 0 2226 1024" version="1.1" xmlns="http://www.w3.org/2000/svg"><path d="M534.26087 0h1691.826087v489.73913c0 295.045565-239.215304 534.26087-534.26087 534.26087H0V534.26087C0 239.215304 239.215304 0 534.26087 0z" fill="#FF5000" fill-opacity=".9" /><path d="M581.810087 712.347826l48.528696-230.088348h1.825391L743.290435 712.347826h75.152695l80.094609-376.431304h-92.115478l-48.528696 230.088348h-1.780869l-111.170783-230.088348H569.878261L489.73913 712.347826h92.070957z m444.549565 6.767304c95.721739 0 164.329739-71.457391 164.329739-169.538782 0-76.443826-53.470609-128.089043-133.298087-128.089044-95.49913 0-164.329739 71.457391-164.329739 169.538783 0 76.710957 53.737739 128.089043 133.298087 128.089043z m3.650783-69.89913c-27.648 0-45.901913-23.997217-45.901913-60.015304 0-56.097391 29.473391-97.814261 69.364869-97.814261 27.648 0 45.679304 24.041739 45.679305 60.015304 0 55.296-29.740522 97.814261-69.142261 97.814261z m232.180869 66.515478c26.846609 0 48.528696-21.637565 48.528696-48.528695a48.439652 48.439652 0 1 0-96.790261 0c0 26.89113 21.370435 48.528696 48.261565 48.528695zM1626.601739 712.347826l13.04487-61.039304h46.970434l15.627131-74.618435h-46.658783l51.110957-240.773565H1568.946087c-84.23513 96.52313-143.226435 166.956522-190.686609 231.646608l-15.894261 83.70087h186.768696L1536.089043 712.347826h90.512696z m-59.970782-132.229565h-106.184348l0.26713-1.869913c41.182609-56.58713 98.348522-125.996522 141.623652-174.747826h1.825392l-37.531826 176.573217z" fill="#FFFFFF" /></svg>