<?xml version="1.0" standalone="no"?><!DOCTYPE svg PUBLIC "-//W3C//DTD SVG 1.1//EN" "http://www.w3.org/Graphics/SVG/1.1/DTD/svg11.dtd"><svg class="icon" width="200px" height="92.00px" viewBox="0 0 2226 1024" version="1.1" xmlns="http://www.w3.org/2000/svg"><path d="M534.26087 0h1691.826087v489.73913c0 295.045565-239.215304 534.26087-534.26087 534.26087H0V534.26087C0 239.215304 239.215304 0 534.26087 0z" fill="#FF5000" fill-opacity=".9" /><path d="M581.810087 667.826087l48.528696-230.088348h1.825391L743.290435 667.826087h75.152695l80.094609-376.431304h-92.115478l-48.528696 230.088347h-1.780869l-111.170783-230.088347H569.878261L489.73913 667.826087h92.070957z m444.549565 6.767304c95.721739 0 164.329739-71.457391 164.329739-169.538782 0-76.443826-53.470609-128.089043-133.298087-128.089044-95.49913 0-164.329739 71.457391-164.329739 169.538783 0 76.710957 53.737739 128.089043 133.298087 128.089043z m3.650783-69.89913c-27.648 0-45.901913-23.997217-45.901913-60.015304 0-56.097391 29.473391-97.814261 69.364869-97.814261 27.648 0 45.679304 24.041739 45.679305 60.015304 0 55.296-29.740522 97.814261-69.142261 97.814261z m232.180869 66.515478c26.846609 0 48.528696-21.637565 48.528696-48.528696a48.439652 48.439652 0 1 0-96.790261 0c0 26.89113 21.370435 48.528696 48.261565 48.528696z m266.061913 3.116522c91.314087 1.602783 160.189217-59.436522 158.898087-147.634087-0.801391-65.714087-45.679304-109.30087-106.718608-109.30087-36.240696 0-63.888696 11.753739-82.454261 32.589913h-1.78087l27.38087-84.769391h173.189565l16.473043-73.817043h-249.410782l-64.690087 214.950956h86.594783c12.02087-15.894261 33.925565-25.822609 55.56313-25.822609 34.459826 0 56.854261 22.171826 56.854261 56.587131 0 37.042087-28.672 63.398957-64.111305 63.398956-33.970087 0-58.457043-20.836174-60.816695-51.645217h-86.594783c0 2.092522-0.26713 5.209043-0.26713 9.126957 0.26713 62.330435 55.296 114.777043 141.890782 116.335304z" fill="#FFFFFF" /></svg>