<?xml version="1.0" standalone="no"?><!DOCTYPE svg PUBLIC "-//W3C//DTD SVG 1.1//EN" "http://www.w3.org/Graphics/SVG/1.1/DTD/svg11.dtd"><svg class="icon" width="200px" height="92.00px" viewBox="0 0 2226 1024" version="1.1" xmlns="http://www.w3.org/2000/svg"><path d="M534.26087 0h1691.826087v489.73913c0 295.045565-239.215304 534.26087-534.26087 534.26087H0V534.26087C0 239.215304 239.215304 0 534.26087 0z" fill="#FF5000" fill-opacity=".9" /><path d="M581.810087 667.826087l48.528696-230.088348h1.825391L743.290435 667.826087h75.152695l80.094609-376.431304h-92.115478l-48.528696 230.088347h-1.780869l-111.170783-230.088347H569.878261L489.73913 667.826087h92.070957z m444.549565 6.767304c95.721739 0 164.329739-71.457391 164.329739-169.538782 0-76.443826-53.470609-128.089043-133.298087-128.089044-95.49913 0-164.329739 71.457391-164.329739 169.538783 0 76.710957 53.737739 128.089043 133.298087 128.089043z m3.650783-69.89913c-27.648 0-45.901913-23.997217-45.901913-60.015304 0-56.097391 29.473391-97.814261 69.364869-97.814261 27.648 0 45.679304 24.041739 45.679305 60.015304 0 55.296-29.740522 97.814261-69.142261 97.814261z m232.180869 66.515478c26.846609 0 48.528696-21.637565 48.528696-48.528696a48.439652 48.439652 0 1 0-96.790261 0c0 26.89113 21.370435 48.528696 48.261565 48.528696zM1643.564522 667.826087l15.671652-73.817044h-157.339826l0.26713-1.825391 84.546783-63.666087c83.70087-62.330435 106.674087-91.581217 106.674087-140.065391 0-61.039304-56.58713-103.602087-133.565218-103.602087-84.23513 0-148.702609 52.179478-153.911652 124.438261h86.861913c6.233043-32.589913 29.250783-51.110957 60.549566-51.110957 27.113739 0 46.436174 16.161391 46.436173 39.891479 0 25.822609-16.205913 43.853913-73.327304 87.396173L1373.807304 601.043478 1359.248696 667.826087h284.360347z" fill="#FFFFFF" /></svg>